<?xml version='1.0' encoding='utf-8'?>
<svg xmlns="http://www.w3.org/2000/svg" width="8.5in" height="11in" version="1.1"
    style="shape-rendering:geometricPrecision; text-rendering:geometricPrecision; image-rendering:optimizeQuality; fill-rule:evenodd; clip-rule:evenodd"
    viewBox="0 0 8500 11000">
    <defs>
        <style type="text/css">
            .fil0 {
                fill: #fff
            }
        </style>
    </defs>
    <g id="Layer_x0020_1">
        <metadata id="CorelCorpID_0Corel-Layer" />
        <path class="fil0"
            d="M1457 5884c-267,99 -401,107 -662,278 -513,336 -809,953 -809,1572 0,190 16,577 123,727 89,125 320,958 -17,758 -147,-87 -30,396 204,8 217,-359 -193,-954 22,-910 456,93 23,-122 34,-409 3,-70 -67,-633 148,-331 39,55 -4,276 369,322 187,23 160,-41 109,-292 -26,-127 -187,-57 -176,-341 7,-177 -626,-307 -195,-785 281,-312 626,-368 202,-117 -377,223 -374,701 -138,304 125,-211 823,-461 822,-492 -6,-140 11,-139 -38,-292zm-1147 1645c-63,-26 -46,-43 -21,-99 16,-36 139,-143 142,-52 1,29 -98,150 -117,150 -3,0 -4,2 -5,1zm-22 -174c-26,-25 -39,-22 -11,-69 22,-36 92,-114 135,-71 23,23 -17,82 -43,100 -46,33 -20,29 -77,38 -2,0 -3,3 -4,2zm9 -148c-15,-11 -42,-2 -22,-58 13,-36 105,-117 94,-25 -4,32 -30,79 -67,77 -6,0 -7,5 -5,6zm49 -191c-12,-1 -80,40 -65,-37 7,-32 92,-83 80,15 -1,7 -9,22 -15,22z" />
        <path class="fil0"
            d="M740 8300c-86,-142 -8,-158 -213,-158 0,-532 958,217 525,67 -163,-56 -171,-185 -224,76 -3,16 -55,71 -88,16z" />
        <path class="fil0"
            d="M867 6590c58,-31 197,-101 232,-150 23,-32 40,24 43,38 11,53 15,144 13,202 -2,49 31,65 28,100 -4,37 -54,50 -94,-28 -15,-29 -3,-69 -24,-128 -39,-114 -238,103 -18,291 173,148 159,3 213,320 40,237 344,693 40,872 -98,58 -530,-1353 -433,-1517z" />
        <path class="fil0"
            d="M433 9049c-10,8 -28,100 -55,141 -36,57 -58,164 45,76 67,-57 168,-113 69,-182 -1,-1 -56,-39 -60,-36z" />
        <path class="fil0"
            d="M440 8927c345,400 795,545 1350,433 -9,-27 -100,-159 -117,-208 -405,104 -1020,-105 -1221,-515 -8,-16 -29,-80 -30,-81 -31,-43 -22,-13 -35,6 22,39 48,140 52,185 4,48 18,132 0,179z" />
        <path class="fil0"
            d="M469 8442c-40,68 151,207 185,259 1,1 160,92 179,104 48,30 317,109 374,109 103,0 134,4 233,-9 55,-7 89,-2 92,-79 3,-75 -74,-23 -117,-25 -92,-4 -146,29 -270,4 -33,-7 -63,-5 -101,-32 0,0 -102,-26 -136,-48 -97,-64 -243,-144 -320,-225 -25,-27 -99,-92 -118,-59z" />
        <path class="fil0"
            d="M1582 8723c90,17 263,-6 354,-17 1,0 3,82 32,118 78,97 93,161 207,235 78,51 178,195 266,236 75,35 129,109 -8,103 -95,-4 -233,-33 -320,-16 0,0 -21,0 -21,0 -1,-3 -21,-17 -29,-24 -38,-34 -245,-241 -267,-272 -34,-47 -55,-87 -95,-142 -46,-63 -118,-141 -118,-220z" />
        <path class="fil0"
            d="M1068 6864c-35,20 -103,-141 9,-63 30,21 116,74 153,72 34,-1 139,55 154,98 10,30 13,22 25,67 10,37 48,73 52,96 6,36 4,48 8,79 5,44 25,140 7,181 0,0 3,95 -37,55 -24,-24 15,-48 -40,-100 -53,-50 -46,-203 -60,-271 -14,-70 -56,-97 -119,-123 -62,-26 -82,-22 -135,-70 -2,-2 -24,-18 -18,-21z" />
        <path class="fil0"
            d="M542 2413c-193,266 -431,823 -470,1142 -24,197 -11,279 25,458 60,292 49,255 193,532 77,148 164,328 156,502 -2,45 -14,297 7,301 13,62 35,-100 35,-110 0,-8 25,-210 25,-292 0,-221 -264,-474 123,-240 315,191 278,-106 185,-102 -225,9 -583,-580 -583,-825 0,-259 76,-842 278,-1014 137,-117 55,-393 26,-353z" />
        <path class="fil0"
            d="M578 2903c-3,95 276,89 127,284 -75,98 -206,-193 -200,-33 5,117 310,143 333,8 35,-208 -134,-434 -243,-296 -7,8 -13,17 -17,38z" />
        <path class="fil0"
            d="M888 2850c-23,-13 -150,-101 -150,-104 0,-305 -75,-617 -442,-617 -181,0 -232,282 -97,431 68,75 -54,175 -111,10 -94,-273 -193,-340 110,-556 87,-62 359,-5 442,54 103,73 145,56 225,217 21,43 172,229 165,327 -18,230 91,79 -73,160 -26,13 -56,84 -69,77z" />
        <path class="fil0"
            d="M1209 2742c-38,-163 -107,-298 -202,-431 -47,-65 103,55 103,55 43,43 321,362 145,355 -10,0 -48,10 -46,21z" />
        <path class="fil0"
            d="M613 3338c-43,265 449,133 350,333 -62,126 -258,-179 -431,94 -50,78 -100,134 -150,54 -2,-3 -7,-41 -3,-64 17,-124 95,-445 -7,-151 -48,140 -131,217 -1,383 139,177 359,-104 503,181 2,5 18,18 21,21 68,112 54,488 28,615 -36,178 -16,288 -33,433 -38,309 -17,502 -17,808 135,-47 312,-90 342,-241 24,-117 35,-80 55,-142 37,-112 194,-309 194,-333 0,-232 -237,263 -244,273 -141,198 -31,-529 -31,-565 0,-147 103,-647 169,-740 62,-88 33,-363 90,-485 0,-45 19,-300 15,-306 -79,-110 -33,156 -123,156 0,-1 0,-293 0,-325 0,-44 -83,-170 -83,17 0,187 -31,488 -25,633 7,159 -72,483 -92,650 -15,121 -118,466 -75,117 33,-266 178,-1447 -42,-1606 -184,-133 48,234 -408,190zm411 855c0,0 -26,12 -35,-12 -10,-28 71,-85 73,-29 1,16 -28,42 -38,40zm-21 -138c-22,-3 -45,-1 -33,-38 5,-17 22,-25 38,-27 17,-2 12,-12 42,-1 16,6 23,31 7,49 -38,43 -44,19 -55,17zm-22 -108c-5,-4 -37,6 -21,-46 7,-23 39,-22 44,-26 21,-16 29,-60 65,-42 13,6 20,42 11,54 -7,10 -9,33 -35,51 -40,27 -63,11 -65,10zm4 -237c1,-15 15,-35 30,-35 20,0 32,4 37,27 9,44 -71,162 -119,159 -31,-1 -62,-5 -51,-48 7,-29 39,-31 64,-40 10,-4 21,-1 28,-22 0,-1 11,-38 11,-41z" />
        <path class="fil0"
            d="M1030 2116c39,1 162,-66 246,-63 2,0 116,-34 150,-37 113,-9 206,-26 325,-21 19,1 156,-8 200,-8 36,0 312,-22 240,57 -18,19 -123,160 -129,151 -39,-54 -147,43 -219,28 -86,-18 -302,208 -205,258 71,36 271,-190 271,88 0,104 -115,94 -188,100 -68,6 -66,223 -275,49 -53,-44 -60,-190 -18,-250 34,-47 13,-153 113,-213 115,-68 35,-114 -99,-26 -33,22 -154,43 -196,53 -5,-2 -218,-137 -217,-167z" />
        <path class="fil0"
            d="M5000 2501c192,50 205,-37 386,-94 66,-20 344,-269 458,-311 214,-79 615,-44 244,72 -58,18 -159,152 -260,184 -24,7 -62,69 -156,109 -52,22 -111,107 -214,124 -7,1 -267,-12 -170,56 108,77 308,8 401,-85 76,-76 247,-229 353,-262 100,-31 145,-82 276,-104 121,-20 368,-98 468,-94 172,7 357,16 504,121 143,102 180,178 171,189 -10,12 -79,-41 -151,-74 -48,-23 -102,-30 -123,-27 -105,13 -161,29 -243,91 -161,121 4,234 82,227 240,-19 208,170 219,307 10,120 -278,227 -163,46 102,-161 -21,-208 -160,-186 -57,9 -88,52 -130,62 -159,36 -300,-75 -254,-257 11,-43 46,-85 62,-120 21,-45 20,-79 4,-103 -71,-112 -160,7 -184,74 -37,107 -106,192 -194,259 -154,116 -247,-91 -195,-164 75,-106 -77,-103 -173,-46 -243,144 -73,292 -73,394 0,51 -135,1 -178,10 -98,20 -370,-35 -423,-92 -23,-24 -282,-119 -325,-206 -158,-318 -26,-267 -27,-223 -5,127 78,97 167,125zm2036 -259c-66,31 -87,-77 -16,-68 41,5 55,63 18,66l-3 1zm-100 15c-52,21 -84,-9 -98,-55 -16,-52 33,-42 64,-28 10,4 55,64 36,81 0,0 -1,2 -2,2zm-212 -39c-32,-4 -24,-99 72,-33 48,32 104,166 -13,115 -17,-7 -57,-81 -59,-82zm-19 120c-9,-13 -60,-50 -77,-48 -19,2 -49,-19 -43,-47 11,-52 91,-18 116,3 30,25 69,44 44,90 -5,10 -34,10 -40,2z" />
        <path class="fil0"
            d="M5930 3409c94,-36 53,61 82,130 30,73 12,135 61,157 90,42 271,-1 436,-1 81,0 294,-43 356,-82 138,-87 408,-211 479,-354 69,-140 98,-141 98,-329 0,-156 170,163 93,-213 -9,-46 -52,-160 -52,-161 -29,-172 -362,-228 -314,-186 133,113 108,206 159,278 61,85 33,180 35,241 4,91 -41,118 -61,158 -137,277 -309,171 -408,233 -36,0 -66,7 -99,0 -58,-12 -360,-13 -384,32 -67,129 -44,56 -96,118 -84,100 -100,36 -138,80 -127,149 -135,-102 -131,-110 84,-142 2,136 132,13 103,-98 60,-310 -7,-421 -81,-133 -295,-212 -288,-380 4,-96 -110,90 38,238 120,120 31,365 -33,387 -26,9 -42,43 -57,56 -45,41 43,133 99,116z" />
        <path class="fil0"
            d="M6235 2877c12,-46 152,-150 194,-106 54,57 749,443 384,429 -19,-1 -146,19 -188,1 -93,-39 -116,-25 -208,-121 -20,-21 -181,-206 -182,-203z" />
        <path class="fil0"
            d="M6149 3841c-30,34 32,92 43,131 14,48 15,96 42,137 34,51 83,86 110,121 69,90 108,177 53,253 -22,30 -43,98 -116,113 -36,7 -65,132 150,20 95,-50 100,-349 34,-422 -11,-12 -117,-127 -117,-128 -9,-2 -115,-131 105,-131 90,0 143,62 255,57 123,-5 253,-18 384,-85 129,-66 238,-174 310,-297 33,-56 70,-115 77,-175 10,-83 58,-117 58,-292 0,-288 -52,45 -149,152 -134,148 -411,388 -667,441 -116,24 -227,52 -351,73 -39,7 -97,22 -139,15 -38,-7 -63,-4 -81,16z" />
        <path class="fil0"
            d="M6994 4092c-58,53 12,302 -48,387 -22,31 -19,257 51,56 81,-235 52,-188 52,-422 0,-62 -58,-18 -55,-21z" />
        <path class="fil0"
            d="M7124 4030c7,-7 196,-140 199,-134 47,95 33,143 92,233 51,78 97,644 97,771 0,147 -17,410 -56,546 -44,151 -36,255 -99,408 -49,118 -143,-54 -128,-85 40,-81 64,-78 107,-212 8,-25 29,-49 40,-94 29,-114 62,-256 57,-380 -2,-57 35,-487 -95,-283 -8,12 21,287 -31,413 -40,96 -27,256 -117,382 -14,20 -60,147 -115,55 -1,-2 112,-613 108,-702 -5,-124 58,-445 12,-557 -20,-48 -36,-287 -72,-359z" />
        <path class="fil0" d="M6762 4556c-77,-15 -159,23 -104,-135 53,-18 121,-101 177,63 30,88 -3,86 -73,73z" />
        <path class="fil0" d="M6356 5061c-66,-21 -127,22 -120,-135 3,-69 204,-109 120,135z" />
        <path class="fil0"
            d="M6530 5118c-24,-3 -91,-66 -91,-130 0,-78 74,-209 114,-10 0,2 112,140 -15,145 -7,0 -36,-9 -8,-5z" />
        <path class="fil0" d="M7025 5152c-53,-64 -106,-215 40,-185 92,19 10,246 -40,185z" />
        <path class="fil0" d="M6968 5465c-39,-2 -185,-6 -74,-85 98,-70 137,88 74,85z" />
        <path class="fil0"
            d="M6796 5045c-149,32 -250,-183 -155,-340 60,-98 226,-78 291,33 83,140 30,223 -93,311 -4,3 -36,-5 -43,-4z" />
        <path class="fil0" d="M6778 5316c-60,-6 -280,-217 47,-203 35,2 96,-90 104,125 3,68 -96,84 -151,78z" />
        <path class="fil0" d="M2601 7493c-12,22 -61,371 30,280 18,-18 37,-277 -4,-274 -14,1 -27,-4 -26,-5z" />
        <path class="fil0"
            d="M2366 9066c-70,-30 -219,-140 -82,-210 56,-29 86,-139 218,-139 159,0 356,-40 159,108 -121,91 -294,241 -294,241z" />
        <path class="fil0" d="M2939 8728c0,53 65,332 174,205 76,-89 241,-33 146,-193 -22,-37 -258,-11 -319,-11z" />
        <path class="fil0"
            d="M3174 9202c-4,78 101,234 245,175 115,-47 507,187 69,-228 -119,-113 -40,-92 -265,20 -27,13 -50,44 -50,34z" />
        <path class="fil0"
            d="M2856 9030c62,-200 -397,-92 -232,180 75,124 60,126 242,133 75,3 201,-67 229,-157 28,-90 312,-274 434,-131 62,72 155,-71 -122,-128 -177,-36 -386,282 -563,311 -169,28 -204,-93 -107,-190 26,-26 82,-47 118,-17z" />
        <path class="fil0"
            d="M3695 8915c-253,0 -123,32 -290,-111 -25,-21 -124,-309 69,-204 77,42 -98,214 186,262 5,1 45,53 36,53z" />
        <path class="fil0"
            d="M2793 8144c90,35 198,84 282,131 -14,-95 -90,-297 -84,-423 4,-86 -31,-89 -10,-260 13,-108 3,-497 59,-576 0,-1 31,-165 27,-168 -54,-46 -172,-174 -222,-174 0,34 -88,216 -83,344 1,33 -42,233 -42,354 0,72 27,640 44,664 5,7 24,105 29,107z" />
        <path class="fil0"
            d="M2710 6446c88,9 374,228 440,299 76,82 192,154 272,260 37,49 329,407 330,409 -8,-104 311,71 139,-220 -97,-163 -552,-574 -720,-701 -75,-56 -125,-190 -276,-82 -20,15 -97,-17 -167,21l-18 13z" />
        <path class="fil0"
            d="M6049 5410c146,192 395,278 454,567 14,70 42,277 -8,327 -114,114 -314,156 -432,39 -75,-75 -5,-139 -194,-233 -140,-69 -58,-398 31,-219 37,74 377,127 203,-224 -35,-71 -228,-82 -84,-225 8,-8 35,-26 30,-33z" />
        <path class="fil0"
            d="M6917 8832c36,-61 174,-118 244,-258 17,-34 101,-169 122,-169 1,0 169,179 167,229 -4,90 41,295 -18,388 -23,36 -53,452 -240,359 -56,-28 168,-396 -201,-321 -66,14 -188,189 -121,-30 9,-29 231,-108 191,-168 -10,-15 -19,-17 -35,-19 -25,-3 -73,-8 -99,1 -11,4 -37,37 -9,-11z" />
        <path class="fil0"
            d="M7283 6946c0,-194 -211,-767 -358,-892 -79,-67 -208,-302 -341,-375 -80,-44 -153,-219 -312,-232 -18,-1 -238,-89 -101,-206 19,-16 44,-82 28,-118 200,0 479,222 608,351 189,189 263,285 399,515 19,32 76,113 87,145 28,80 119,230 135,324 14,83 88,235 84,343 -4,111 87,525 29,667 -39,95 -32,366 -136,455 -54,46 -43,271 -219,438 -107,102 -105,132 -254,236 -71,50 -252,288 -378,288 0,1 -124,-224 -74,-254 113,-67 501,-428 543,-549 9,-26 206,-321 17,-160 -4,3 -58,103 -87,132 -87,87 -397,345 -504,382 -147,51 -154,94 -354,94 -90,0 -505,92 -531,167 -20,57 -169,93 -187,199 -7,43 -79,24 -33,250 19,94 132,237 243,158 1,-1 124,-34 198,-93 57,-46 71,215 -169,215 -234,0 -265,-87 -383,-253 -27,-37 -1,-274 74,-338 43,-37 19,-145 184,-201 63,-22 145,-114 -21,-135 -97,-12 -487,-398 -344,-386 6,-31 179,154 230,184 115,68 170,106 302,128 188,31 137,54 352,10 41,-8 69,-1 100,-2 141,-4 211,29 419,-157 68,-60 210,-118 280,-237 63,-107 370,-279 411,-477 46,-228 72,-164 72,-449 0,-59 -10,-133 -10,-167z" />
        <path class="fil0"
            d="M6085 8634c0,-11 65,-26 93,3 61,64 21,277 125,234 -15,-69 -13,-112 -19,-144 -51,-248 60,-25 73,52 28,173 98,195 142,285 48,96 203,157 260,209 69,62 422,19 307,93 -168,108 -468,-45 -616,-142 -137,-90 -370,-413 -365,-590z" />
        <path class="fil0"
            d="M5614 8912c-31,-68 -86,23 -86,-78 0,-38 80,-58 121,-17 23,23 50,17 88,22 49,6 141,-20 188,-1 15,6 43,-5 74,29 16,18 42,92 70,126 19,23 17,15 30,44 14,33 52,42 -15,67 -15,6 -56,-11 -93,22 -20,18 -177,8 -212,7 -25,-1 -85,8 -122,8 -32,0 -57,5 -94,5 -27,0 -79,6 -96,2 -45,-9 -47,20 -47,-67 0,-18 -11,-81 36,-64 81,29 387,1 394,6 0,0 102,5 47,-44 -17,-15 -95,-4 -126,-4 -30,0 -237,19 -161,-46 4,-4 6,-13 4,-17z" />
        <path class="fil0"
            d="M6266 8187c5,-143 34,-193 63,-335 18,-90 39,-224 90,-295 15,-21 207,-552 277,-630 3,-3 171,-287 174,-294 12,-34 125,-277 125,-104 0,296 -190,374 149,663 73,62 2,409 -48,490 -54,90 61,-257 -186,-207 -114,23 -74,96 -193,-44 -65,-76 -80,140 -27,215 44,62 -141,370 -237,404 -139,48 -15,172 -156,167 -44,-2 -33,34 -31,-29zm470 -855c-14,-8 -39,-16 -48,-10 -122,87 -102,-73 41,-43 59,12 48,110 12,91 -16,-9 27,-18 -5,-37zm50 -82c-60,-25 -121,5 -110,-50 8,-39 173,-25 140,30 -10,16 -29,20 -30,20zm29 -135c-15,5 -105,49 -74,-39 26,-73 134,-39 74,39z" />
        <path class="fil0"
            d="M6555 8198c-18,-4 -34,13 -34,-32 0,-40 -2,-42 27,-71 8,-8 79,-76 82,-77 3,-2 49,-33 49,-33 27,-25 73,-48 95,-6 9,16 10,19 -6,36 -7,8 -37,19 -47,22 -18,5 -58,28 -70,43 -6,7 -27,20 -40,36 -14,19 -31,40 -39,63 -4,13 -16,19 -18,19z" />
        <path class="fil0"
            d="M3398 8537c-31,-7 -92,-105 -121,-135 -73,-73 99,-31 118,-23 63,26 229,29 303,96 57,52 112,63 191,142 74,74 90,129 144,220 38,62 79,179 63,253 -15,73 -2,60 -64,118 -46,44 -71,127 -165,127 -94,0 -48,24 -118,-54 -25,-28 73,-30 120,-80 73,-77 56,-103 61,-205 6,-138 -169,-355 -302,-401 -92,-32 -128,-35 -232,-60z" />
        <path class="fil0"
            d="M4122 6527c-72,-4 -204,12 -227,-101 -34,-169 85,-133 151,-161 14,-6 63,3 111,-31 48,-34 77,64 77,98 0,83 -13,144 -79,191 -7,5 -23,4 -33,4z" />
        <path class="fil0"
            d="M3942 6834c-124,84 -185,-336 14,-210 50,32 156,-31 152,56 -2,57 33,114 -68,146 -11,3 -92,4 -99,8z" />
        <path class="fil0" d="M4531 6631c-184,29 -265,-241 -78,-289 138,-35 269,21 217,193 -14,48 -84,88 -139,96z" />
        <path class="fil0"
            d="M4182 7019c-47,5 -115,34 -154,-32 -53,-90 108,-82 123,-172 2,-12 19,-68 42,-67 76,3 61,40 92,85 2,3 8,156 -77,170 -4,1 -26,16 -26,16z" />
        <path class="fil0" d="M4281 6662c-17,76 -177,-26 -10,-95 46,-19 63,72 10,95z" />
        <path class="fil0" d="M4395 6764c-72,49 -114,-6 -51,-56 6,-5 65,-84 77,19 2,19 -14,28 -26,36z" />
        <path class="fil0"
            d="M4585 7115c-114,-21 -237,-120 -237,-247 0,-48 83,-14 104,-115 11,-53 109,-33 161,-58 62,-31 89,-87 95,59 3,68 -104,88 -125,26 -20,-57 -154,-26 14,101 26,19 90,83 55,109 -35,26 -43,130 -66,126z" />
        <path class="fil0"
            d="M4979 7386c-29,-3 -164,-64 -161,-91 -35,-7 71,-130 89,-130 37,0 68,26 156,26 37,0 168,-3 191,12 39,25 217,29 262,10 37,-15 291,8 402,-63 13,-8 85,-40 49,18 -45,74 -40,208 -124,204 -26,-1 -134,39 -182,36 -30,-1 -127,29 -188,26 -35,-1 -166,6 -203,-9 -1,0 -209,-14 -250,-31 -3,-1 -39,-9 -42,-9z" />
        <path class="fil0"
            d="M5039 7818c-53,-8 -68,21 -54,-91 6,-48 10,-138 61,-163 32,-16 75,-83 147,-77 26,2 40,-19 109,-5 23,5 96,-8 127,14 35,25 240,-32 259,38 17,64 104,14 63,266 -10,59 -70,104 -99,20 -45,-129 -160,65 -236,-167 -26,-79 -65,-77 -129,-103 -38,-16 -149,6 -175,37 -38,45 -63,31 -59,134 0,0 -21,95 -13,96z" />
        <path class="fil0"
            d="M4427 7769c-47,-152 127,-596 243,-694 38,-32 78,-149 215,-243 230,-158 230,-21 492,-313 92,-102 167,27 151,49 -100,140 -40,121 -193,235 -218,164 -8,79 67,167 20,23 273,197 76,205 -31,1 -136,-129 -240,-125 -44,2 -158,-83 -326,18 -196,119 -244,213 -288,431 -48,237 2,271 21,489 17,191 357,625 302,301 -51,-304 237,-630 528,-486 181,90 172,591 -105,355 -85,-73 52,-89 97,-87 140,6 -171,-329 -399,20 -75,114 -42,358 98,435 65,35 189,399 -233,59 -123,-99 -243,-157 -358,-321 -104,-149 -245,-233 -262,-430 -9,-97 3,-29 76,-37 24,-3 35,-30 36,-27z" />
        <path class="fil0"
            d="M4726 9300c44,124 -145,119 -271,24 -162,-122 -267,229 -321,8 -5,-22 91,-244 133,-286 181,-181 251,-88 392,-117 59,-12 259,27 102,-72 -67,-43 -293,-29 -349,-115 -5,-7 -14,-18 -24,-17 -27,6 -118,-73 -150,-90 -102,-55 -177,-58 -277,-87 -31,-9 -221,-149 -257,-175 -80,-60 -214,-40 -226,-60 -36,-61 114,-21 185,-120 12,-17 -13,-71 -30,-77 -11,-42 -128,-23 -158,-1 -36,26 -209,1 -236,-32 -6,-7 -59,-9 -74,-98 -6,-35 -104,-155 -49,-246 31,-51 267,107 309,121 119,41 123,39 207,137 5,6 247,171 297,224 51,53 215,147 259,210 53,75 182,64 243,142 12,16 411,252 443,260 27,7 196,88 198,104 4,35 10,24 10,83 0,161 11,123 -120,78 -36,-13 -293,34 -234,199z" />
        <path class="fil0"
            d="M2101 2551c-50,-62 61,-298 132,-345 34,-23 78,-79 164,-130 60,-36 128,-79 204,-76 40,2 188,-13 246,-13 15,0 193,36 172,59 -139,155 -141,8 -297,73 -36,15 -151,3 -218,46 -20,13 -67,-8 -123,68 -41,55 -76,28 -118,163 -20,64 -56,162 -133,162 -8,0 -24,1 -29,-6z" />
        <path class="fil0"
            d="M2128 2753c-68,-14 -87,-6 6,-80 76,-60 108,-39 192,-126 85,-87 234,-127 316,-23 5,7 244,93 8,167 -115,36 -66,52 -216,70 -33,4 -331,-13 -306,-8z" />
        <path class="fil0"
            d="M3057 2724c-119,-91 -72,-148 -290,-284 -36,-23 -281,-130 -270,-149 9,-15 220,-80 270,-70 159,32 247,124 368,215 49,37 397,339 153,289 -48,-10 -223,5 -231,0z" />
        <path class="fil0"
            d="M4742 6331c-77,-25 -33,-89 -174,-83 -26,1 -35,-56 63,-52 41,2 236,-96 204,63 -4,22 -71,79 -92,72z" />
        <path class="fil0"
            d="M3392 2428c-25,6 -42,3 -52,-10 -1,0 -120,-98 -120,-99 -37,-46 -159,-117 -114,-120 7,-103 473,-117 566,-144 11,-3 444,-49 465,-48 93,4 295,-10 411,-10 159,0 620,58 755,113 57,23 257,4 88,104 -48,28 -229,143 -274,115 -115,-73 -266,-91 -408,-108 -152,-19 -258,-5 -396,-5 -53,0 -374,-20 -288,80 1,2 145,16 304,72 220,77 474,217 474,390 0,32 -82,16 -161,16 -1,0 -64,-82 -197,-163 -255,-157 -775,-266 -1053,-181z" />
        <path class="fil0"
            d="M5388 5948c96,14 74,245 88,228 70,-82 213,101 143,-122 -16,-51 -91,-217 -161,-153 -2,1 -68,46 -69,46z" />
        <path class="fil0"
            d="M184 6375c-44,-7 -38,-108 -142,8 -18,19 -18,111 5,140 57,72 41,97 148,80 115,-19 164,-266 35,-213 -14,6 -44,-14 -46,-14z" />
        <path class="fil0" d="M419 6405c-36,24 -65,-13 -22,-56 30,-30 69,-42 80,11 10,47 -67,51 -58,45z" />
        <path class="fil0" d="M529 6292c-41,-9 -51,-7 -53,-65 -1,-34 122,-123 127,0 2,49 -73,65 -74,65z" />
        <path class="fil0"
            d="M111 6141c17,-29 44,-61 79,-68 25,-4 56,-29 70,-51 25,-38 44,24 79,49 4,3 17,32 37,51 27,26 24,75 14,107 -20,63 -58,102 -126,102 -73,0 -103,-18 -138,-83 -11,-20 -25,-92 -16,-107z" />
        <path class="fil0"
            d="M104 5991c-73,23 -101,-97 -99,-147 1,-26 -8,-45 14,-76 14,-20 17,-105 89,-44 33,28 7,111 64,115 55,4 112,78 65,130 -26,29 -1,30 -57,37 -20,2 -81,-14 -76,-15z" />
        <path class="fil0"
            d="M424 6068c-62,10 -102,-178 42,-191 33,-3 73,-85 159,-17 51,41 41,86 16,142 -25,56 -45,77 -108,90 -21,4 -99,-26 -109,-24z" />
        <path class="fil0"
            d="M627 5692c52,-126 -101,-150 30,-183 57,-15 136,39 133,100 -2,45 4,119 -24,156 -14,18 -70,45 -88,23 -2,-2 -90,-2 -51,-95z" />
        <path class="fil0" d="M795 5487c-71,21 -70,-145 9,-88 12,8 28,77 -9,88z" />
        <path class="fil0"
            d="M594 5455c-52,6 -56,2 -56,-59 0,-9 46,-121 48,-122 76,-38 148,105 77,144 -19,10 -17,29 -65,35 -2,0 -1,3 -4,3z" />
        <path class="fil0"
            d="M162 5727c-48,-19 -8,-163 22,-202 20,-27 22,-37 56,-55 49,-26 99,-42 155,-19 26,11 36,3 77,28 50,30 88,108 73,168 -28,110 -18,112 -126,179 -21,13 -95,27 -117,13 -40,-26 -79,-17 -113,-76 0,0 -27,-37 -27,-37z" />
        <path class="fil0"
            d="M168 5421c-64,18 -130,-43 -137,-96 -8,-62 -10,-158 61,-184 42,-16 68,-35 119,-28 78,10 135,103 135,183 0,115 -27,45 -117,60 -26,4 -30,56 -61,65z" />
        <path class="fil0"
            d="M685 5203c-21,3 -27,6 -49,1 0,0 -19,-13 -24,-27 -31,-98 115,-147 172,-50 28,47 30,73 22,131 -4,35 -60,41 -91,10 -20,-20 -16,-67 -31,-65z" />
        <path class="fil0"
            d="M194 5065c-29,-9 -46,-3 -80,-31 -35,-28 -38,-74 -7,-102 24,-23 93,-3 118,22 48,48 30,108 -19,106 -3,0 -10,5 -13,4z" />
        <path class="fil0" d="M1338 4709c-87,236 135,171 133,129 -7,-166 50,-148 -108,-116 -6,1 -29,-4 -26,-13z" />
        <path class="fil0" d="M3195 6368c14,7 136,76 141,78 0,-105 118,-146 -84,-105 0,0 -53,29 -56,27z" />
        <path class="fil0"
            d="M3744 6644c-29,64 -25,81 -100,28 -78,-55 -50,-229 116,-195 81,17 -11,128 -11,136 1,25 2,15 -5,31z" />
        <path class="fil0" d="M3718 6415c-81,37 -173,-90 -26,-120 166,-34 102,-89 110,110 2,54 -76,7 -83,10z" />
        <path class="fil0"
            d="M3684 2726c-27,-19 -125,-184 -104,-201 4,-3 148,-44 180,24 12,24 112,188 69,188 -48,0 -146,-10 -146,-10z" />
        <path class="fil0"
            d="M3984 3470c0,101 54,278 50,392 0,6 8,59 8,75 25,0 117,5 117,-17 0,-85 12,-321 -16,-388 -22,-53 34,-85 -80,-62 -19,4 -80,6 -80,0z" />
        <path class="fil0"
            d="M4276 3570c-41,45 -37,283 57,236 18,-9 12,-56 100,-104 2,-1 87,-232 -132,-142 -1,1 -22,6 -25,9z" />
        <path class="fil0" d="M4424 3962c-120,-116 -52,-129 47,-218 62,-56 107,10 12,100 -33,31 -51,126 -59,118z" />
        <path class="fil0" d="M4637 3596c21,13 288,142 105,119 -368,-45 -256,-211 -105,-119z" />
        <path class="fil0" d="M4741 4186c-413,33 -190,-522 174,-341 16,8 271,306 -174,341z" />
        <path class="fil0" d="M4908 4389c-347,-148 241,-202 56,-43 -10,8 -62,41 -56,43z" />
        <path class="fil0" d="M4981 4686c-38,-17 -297,-224 -104,-208 134,11 247,-287 260,63 1,21 -57,141 -156,146z" />
        <path class="fil0" d="M4007 4208c-66,-237 410,-187 414,-180 111,182 -233,180 -357,200 -52,9 -41,38 -57,-20z" />
        <path class="fil0" d="M4445 4879c-367,-49 -157,-479 86,-138 77,108 -79,139 -86,138z" />
        <path class="fil0" d="M4835 4827c-1,0 -313,-53 -222,-144 9,-9 361,-33 222,144z" />
        <path class="fil0" d="M4523 4535c-211,21 -285,-459 91,-263 81,42 145,365 -115,252l24 11z" />
        <path class="fil0" d="M2882 3952c-136,-55 -31,41 -185,-75 -116,-87 -10,-262 97,-284 210,-43 295,311 88,358z" />
        <path class="fil0" d="M3049 3592c-242,0 -75,-216 50,-127 23,16 39,127 -50,127z" />
        <path class="fil0" d="M3043 3759c0,-156 56,-191 220,-157 106,22 176,362 -10,408 -111,27 -209,-104 -209,-251z" />
        <path class="fil0"
            d="M2734 3566c-46,38 -51,-66 -20,-93 9,-8 14,-31 54,-30 28,1 49,-14 76,28 35,53 14,69 -33,99 -9,6 -75,-7 -77,-5z" />
        <path class="fil0"
            d="M3491 3472c57,0 242,-1 291,-11 10,-2 49,291 67,334 7,17 38,404 29,427 -8,20 5,235 -21,297 -13,31 -30,222 -57,297 -60,162 -14,230 -146,396 -98,124 -9,146 53,58 19,-27 31,-46 50,-74 16,-24 115,-249 119,-271 13,-66 60,-116 69,-218 2,-27 58,-276 71,-302 32,-66 108,-61 76,16 -9,22 -39,152 -57,178 -36,51 -60,322 -94,375 -18,29 -73,187 -64,212 85,30 132,-67 224,-99 60,-21 202,-114 260,-109 27,2 111,-45 151,-42 3,0 126,-49 177,-47 17,1 166,-42 167,-42 46,9 109,-22 114,11 0,24 -60,163 -61,163 -36,30 -35,122 -75,134 -105,32 -274,0 -371,61 -82,52 -124,33 -154,50 -105,60 -136,-123 -345,41 -123,96 -82,153 -146,204 -32,25 -246,28 -302,35 -91,11 -107,19 -203,11 -26,-2 45,-148 54,-168 53,-120 107,-230 124,-364 9,-75 46,-168 57,-231 3,-20 36,-198 38,-203 26,-88 19,-496 19,-616 0,-105 -32,-155 -37,-216 -3,-40 -39,-143 -47,-182 -13,-65 -17,-54 -31,-105z" />
        <path class="fil0" d="M4106 5509c-59,-22 -185,50 -111,-84 24,-44 210,-122 243,-31 44,123 -115,121 -132,115z" />
        <path class="fil0" d="M4379 5472c-90,33 -94,-53 23,-57 44,-2 35,38 30,62 -53,11 -60,-2 -54,-4z" />
        <path class="fil0"
            d="M2748 4280c-43,25 -107,-13 -128,-57 -53,-108 -31,-111 2,-216 14,-44 85,-85 112,-32 19,39 145,-31 145,136 0,24 -31,155 -70,154 -4,0 -62,16 -61,16z" />
        <path class="fil0"
            d="M2721 4957c-77,-35 -160,85 -125,-120 7,-44 159,-129 19,-248 -21,-18 -19,-95 64,-60 13,5 57,7 76,29 1,1 91,58 118,85 139,139 165,521 165,721 0,102 -2,95 -21,187 -15,75 -52,26 -52,-52 0,-77 -6,-343 -40,-392 -21,-29 -61,-120 -116,-139 -22,-8 -67,-1 -89,-10z" />
        <path class="fil0"
            d="M3103 4333c-32,-7 -33,-3 -48,-43 -10,-28 -20,-59 -43,-79 -41,-35 -87,-227 2,-216 41,5 51,98 79,122 17,15 52,158 34,184 -5,7 -12,35 -24,32z" />
        <path class="fil0"
            d="M3257 4216c-30,21 -53,-12 -52,-46 1,-17 -70,-84 -13,-86 18,-1 85,99 70,124 -2,3 -3,6 -5,7z" />
        <path class="fil0"
            d="M3343 4120c-15,10 -129,-9 8,-121 18,-15 25,-31 60,-23 17,4 33,55 7,77 -20,17 18,46 -41,66 -7,2 -35,2 -34,1z" />
        <path class="fil0"
            d="M2917 4452c-44,-2 -80,14 -100,-52 -15,-49 64,-78 88,-112 38,-56 67,46 78,73 19,47 -11,90 -59,89 -3,0 -4,3 -7,3z" />
        <path class="fil0"
            d="M3002 4608c32,-7 31,-36 59,-63 36,-36 103,-87 130,-130 0,0 66,-43 74,-49 39,-29 69,-72 120,-76 40,-3 83,-105 83,-8 0,28 8,171 -6,181 -42,31 -17,24 -70,41 -28,9 -132,98 -164,120 -20,13 -62,28 -79,53 -14,21 -57,66 -76,84l-2 -5c-2,-3 -8,-15 -8,-18 1,-35 -49,-96 -63,-130z" />
        <path class="fil0"
            d="M3208 4793c-24,-22 -13,32 -13,65 0,37 -3,171 -14,198 -12,29 -50,352 -48,396 1,16 -40,195 30,98 18,-26 21,-171 36,-193 12,-18 69,-275 69,-316 0,-49 16,-114 16,-188 0,-38 22,-177 -46,-82 -7,10 -25,26 -30,22z" />
        <path class="fil0"
            d="M2663 5350c-86,-28 9,-115 -19,-185 -56,-137 154,-152 166,-94 8,39 -108,228 -132,266 -7,11 3,19 -14,13z" />
        <path class="fil0"
            d="M2697 6273c1303,-115 1992,-181 2068,-198 2264,-602 1598,-3247 -404,-3234 -965,-6 -2000,0 -3104,21 -222,3 -309,52 -260,146 23,26 119,66 288,120 226,51 322,237 286,557 -11,2618 -15,4005 -14,4161 -16,225 -103,365 -260,422 -301,114 -433,227 -396,339 1073,16 1844,20 2313,10 19,-220 -243,-233 -421,-337 -153,-89 -242,-180 -267,-273 -13,-847 -12,-1330 5,-1448 -11,-165 45,-261 167,-286zm2247 -2568c432,625 391,1188 -125,1688 -154,161 -463,244 -927,250l-990 104c-271,18 -392,-55 -365,-219l-31 -1844c-29,-246 89,-367 354,-365 1146,-78 1642,19 2083,385z" />
        <path class="fil0"
            d="M4122 7258c74,178 -135,186 -201,208 -268,93 -75,297 -72,312 26,130 -234,9 -220,-166 11,-130 -221,-306 -313,-302 -259,10 -194,38 -219,292 240,-3 568,252 726,410 71,71 163,74 268,223 69,98 501,440 621,482 9,3 498,248 414,107 -8,-14 -447,-310 -511,-374 -20,-20 -45,-44 -57,-71 -9,-10 -60,-67 -60,-68 -15,-35 -97,-117 -123,-152 -7,-10 -62,-64 -62,-64 -244,-325 7,-607 -129,-880 -31,-63 -85,-95 -88,-110 -46,-10 -46,-64 -144,-64 -5,61 99,49 169,219zm-255 557c3,-32 78,-77 83,47 1,21 -24,38 -31,36 -19,-5 -45,53 -95,-2 -22,-25 39,-35 43,-81zm252 358c-115,18 26,-151 26,-30 0,17 -9,27 -26,30zm-192 -230c0,0 27,-31 33,-42 16,-26 78,-7 41,64 -1,2 -31,26 -38,25 -23,-3 -65,12 -36,-48zm119 156c-90,21 -55,-64 -2,-95 30,-18 45,41 34,67 -5,13 -10,23 -32,29zm181 177c-84,41 -56,-119 5,-61 8,7 16,42 5,49 -4,2 -8,12 -9,12z" />
        <path class="fil0"
            d="M5712 6700c7,58 28,126 74,170 96,91 90,53 181,69 34,-3 44,-5 78,-5 36,0 170,-56 179,-66 65,-76 131,85 0,156 -84,45 -60,33 -107,96 -78,104 -74,193 -106,247 -30,50 -32,160 -50,202 -33,80 -16,446 13,516 13,31 9,160 9,203 0,47 112,-23 135,-31 20,-7 21,-156 21,-182 0,-70 50,-211 53,-259 6,-126 107,-283 120,-360 5,-33 67,-223 67,-224 -3,-36 195,-320 214,-380 24,-75 91,-113 124,-174 44,-80 168,-264 236,-322 -3,-1 -67,-142 -111,-90 -30,36 -109,31 -144,64 -28,27 -90,33 -98,38 -32,23 -206,64 -246,81 -92,38 -132,9 -193,12 -118,5 -187,-16 -286,-75 -79,-47 -84,-60 -146,-109 -47,-37 -43,-25 -77,-47 -63,-40 -208,-6 -277,12 -126,32 -111,74 -176,116 -91,60 -56,117 -59,191 -6,154 75,-148 255,-125 144,18 299,123 318,276zm628 45c36,-7 64,-4 82,31 41,83 25,65 6,141l-2 -7c-49,31 -80,-26 -53,-64 29,-40 -87,-90 -33,-101zm105 -34c-23,-41 84,-45 80,3 0,1 5,28 5,39 0,14 -7,54 -20,53 -28,-2 -46,2 -46,-43 0,-50 2,-13 -20,-53zm82 -49c-9,-47 -4,-64 47,-55 38,6 66,90 15,108 -54,20 -56,-22 -63,-53zm145 -99c-69,72 -111,-88 -12,-76 7,1 35,19 34,29 14,3 -16,41 -22,47z" />
    </g>
</svg>