<?xml version="1.0" standalone="no"?>
<!DOCTYPE svg PUBLIC "-//W3C//DTD SVG 20010904//EN"
 "http://www.w3.org/TR/2001/REC-SVG-20010904/DTD/svg10.dtd">
<svg version="1.0" xmlns="http://www.w3.org/2000/svg"
 width="220.000000pt" height="97.000000pt" viewBox="0 0 220.000000 97.000000"
 preserveAspectRatio="xMidYMid meet">

<g transform="translate(0.000000,97.000000) scale(0.100000,-0.100000)"
fill="#fff" stroke="none">
<path d="M0 485 l0 -485 1100 0 1100 0 0 485 0 485 -1100 0 -1100 0 0 -485z
m647 441 c27 -23 28 -29 28 -108 0 -74 -4 -91 -32 -149 -59 -119 -190 -219
-325 -249 -38 -9 -62 -20 -71 -34 -7 -12 -39 -86 -71 -166 -32 -80 -63 -151
-69 -158 -6 -7 -22 -12 -36 -10 -44 5 -33 62 36 197 75 145 79 160 53 211 -26
51 -26 96 -1 110 28 14 31 13 31 -13 0 -13 6 -31 13 -41 12 -17 17 -11 50 58
68 144 176 293 251 348 50 36 103 38 143 4z m1019 -100 c3 -8 -23 -80 -57
-160 -34 -80 -60 -149 -57 -152 3 -3 33 0 66 6 110 20 128 -15 24 -48 -152
-49 -225 -128 -252 -274 -18 -94 8 -110 102 -62 29 15 61 24 74 21 13 -2 24
-1 24 3 0 4 26 37 58 73 41 46 84 116 147 237 96 184 133 238 154 225 22 -13
5 -76 -49 -186 -28 -56 -49 -104 -47 -105 1 -2 22 1 45 7 33 7 49 6 72 -6 45
-23 41 -67 -15 -169 -72 -132 -58 -154 69 -110 43 14 80 23 84 20 13 -13 -15
-42 -68 -68 -107 -55 -200 -28 -200 59 0 27 12 55 40 98 61 92 52 122 -26 84
-60 -29 -158 -120 -191 -178 -14 -25 -33 -51 -41 -58 -21 -18 -42 -4 -42 28
l0 28 -32 -29 c-43 -40 -117 -64 -171 -56 -52 8 -57 8 -140 0 -86 -8 -107 6
-107 75 0 35 9 60 36 106 65 108 55 186 -14 104 -62 -75 -225 -229 -266 -250
-21 -11 -62 -23 -90 -26 -49 -5 -54 -4 -79 27 -15 17 -27 37 -27 43 0 6 -12
-1 -27 -15 -105 -98 -217 -88 -200 19 9 55 53 136 98 183 46 47 129 90 174 90
39 0 95 -34 95 -58 0 -11 -16 -49 -35 -85 -37 -69 -42 -96 -25 -128 8 -13 21
-19 45 -19 19 0 35 4 35 8 0 5 11 14 23 19 34 16 138 114 185 175 22 29 57 85
77 123 43 83 47 87 67 80 21 -8 68 -114 68 -152 0 -16 -16 -67 -35 -113 -52
-126 -46 -160 27 -160 l38 0 0 50 c0 40 9 69 44 138 l44 87 -44 -4 c-34 -2
-44 0 -44 12 0 21 63 72 109 87 41 13 37 6 126 204 34 77 97 166 116 166 5 0
12 -6 15 -14z"/>
<path d="M503 851 c-78 -56 -182 -233 -191 -323 l-5 -49 29 7 c87 21 166 79
211 155 37 62 69 175 59 213 -9 36 -51 34 -103 -3z"/>
<path d="M665 315 c-52 -18 -111 -82 -125 -135 -15 -54 -3 -67 39 -45 71 36
151 132 151 180 0 18 -13 18 -65 0z"/>
</g>
</svg>
